<mxfile host="65bd71144e">
    <diagram id="UOGtkoGKiBWC1pJSl7Pc" name="Page-1">
        <mxGraphModel dx="605" dy="299" grid="1" gridSize="10" guides="1" tooltips="1" connect="1" arrows="1" fold="1" page="1" pageScale="1" pageWidth="827" pageHeight="1169" math="0" shadow="0">
            <root>
                <mxCell id="0"/>
                <mxCell id="1" parent="0"/>
                <mxCell id="2" value="Vehicle" style="swimlane;fontStyle=1;align=center;verticalAlign=top;childLayout=stackLayout;horizontal=1;startSize=26;horizontalStack=0;resizeParent=1;resizeParentMax=0;resizeLast=0;collapsible=1;marginBottom=0;" parent="1" vertex="1">
                    <mxGeometry x="210" y="80" width="330" height="310" as="geometry"/>
                </mxCell>
                <mxCell id="3" value="- sideA: number&#10;- sideB: number&#10;- sideC: number" style="text;strokeColor=none;fillColor=none;align=left;verticalAlign=top;spacingLeft=4;spacingRight=4;overflow=hidden;rotatable=0;points=[[0,0.5],[1,0.5]];portConstraint=eastwest;" parent="2" vertex="1">
                    <mxGeometry y="26" width="330" height="94" as="geometry"/>
                </mxCell>
                <mxCell id="4" value="" style="line;strokeWidth=1;fillColor=none;align=left;verticalAlign=middle;spacingTop=-1;spacingLeft=3;spacingRight=3;rotatable=0;labelPosition=right;points=[];portConstraint=eastwest;strokeColor=inherit;" parent="2" vertex="1">
                    <mxGeometry y="120" width="330" height="8" as="geometry"/>
                </mxCell>
                <mxCell id="5" value="+ constructor(side1: number, side2: number, side3: number)&#10;+ get sideA(): number&#10;+ get sideB(): number&#10;+ get sideC(): number&#10;+ isValid(): boolean&#10;+ area(): number&#10;+ getType(): string&#10;+ semiPerimeter(): number&#10;+ angle(angleNumber: number): number&#10;+ height(sideNumber: number): number&#10;+ innerCircleRadius(): number&#10;" style="text;strokeColor=none;fillColor=none;align=left;verticalAlign=top;spacingLeft=4;spacingRight=4;overflow=hidden;rotatable=0;points=[[0,0.5],[1,0.5]];portConstraint=eastwest;" parent="2" vertex="1">
                    <mxGeometry y="128" width="330" height="182" as="geometry"/>
                </mxCell>
            </root>
        </mxGraphModel>
    </diagram>
</mxfile>